<mxfile host="app.diagrams.net" modified="2023-04-20T02:31:04.543Z" agent="Mozilla/5.0 (Windows NT 10.0; Win64; x64) AppleWebKit/537.36 (KHTML, like Gecko) Chrome/106.0.0.0 Safari/537.36" etag="3Hg8GV5-o0wPCTtCc9EN" version="21.2.1" type="github">
  <diagram name="第 1 页" id="7altOaRegFX55yDcrLU2">
    <mxGraphModel dx="1434" dy="796" grid="1" gridSize="10" guides="1" tooltips="1" connect="1" arrows="1" fold="1" page="1" pageScale="1" pageWidth="827" pageHeight="1169" math="0" shadow="0">
      <root>
        <mxCell id="0" />
        <mxCell id="1" parent="0" />
        <UserObject label="" plantUmlData="{&#xa;  &quot;data&quot;: &quot;@startuml\nstart\n\n:用户浏览商品;\nIF (选择商品加入购物车?) then (是)\n    :用户选择商品加入购物车;\nelse (否)\n    :用户搜索商品;\nendif\n\n:用户查看购物车;\n:用户选择结算购物车商品;\nif (选择收货地址?) then (是)\n    :用户选择收货地址;\nelse (否)\n    :输入新的收货地址;\nendif\n\n:用户选择配送方式;\n:用户选择支付方式;\n:用户确认订单信息;\n:用户支付订单;\n:商家发货;\n:物流公司配送;\n:用户确认收货;\n:订单完成;\nstop\n@enduml\n&quot;,&#xa;  &quot;format&quot;: &quot;png&quot;&#xa;}" id="VYydfrXBKycR_MyYPr3V-3">
          <mxCell style="shape=image;noLabel=1;verticalAlign=top;aspect=fixed;imageAspect=0;image=data:image/png,iVBORw0KGgoAAAANSUhEUgAAASkAAAOACAIAAADpdxLaAAAAKnRFWHRjb3B5bGVmdABHZW5lcmF0ZWQgYnkgaHR0cHM6Ly9wbGFudHVtbC5jb212zsofAAABu2lUWHRwbGFudHVtbAABAAAAeJyFkstOAjEUhvd9ii5hARE1xMBComgiQjQq7EctOHHokKFg3EEiBkQCBrzEYBSjIIkOLsBLvL0M7QxvYXFEBRPtqj3/f/7zNa0rSgSFxMIS+NgA4NBKVyx9z1p5vZam+9u0mHSCmWlo6iQyLFs3KnTnjKYu9eaNlqnrL9VxMyRrCEMTO2qYAeTrM+WPHidAUhRBEy1U+1pYoaw1z3uDEV4Vg99Qp5daOfsjom+M9lTU1MMvtRchBnvsrHSnN2u0fEtPEv8g/7T+JtVfi/wq7OBWO94acPbxGlmdVK6TSLKDR/qcH0BmpUb76WhA0iqqrl7o6jnN7bffKizZ+JIMvyHxYveK6h3N73GCridTZ60kTV3T/IMxdCDTYOVFI4GquyxdcPKXlyPAxdG73wDMSwImfp8XxpESFWUMbdbhoeERq30ZEcFm8uN1LG9guCKHI6KEIBHDyAw8QlyACzHcPTngXARhj3u2V4BTOC4qMg4jTIAn4Ps22EctEyKBi0jhw2DAB9woKMQkwjtW5FURhxzQvzRtGQNeAYdiQohnIwwmZZ6rbHJtEbwDjz5pBnNeFDYAAHJXSURBVHhe7J19cBTHmf/5K1W4cGJXEiyJd4wQNnZgL84ROC7nc+V+5bKNScWxQ0I5vNhxOTaHi1iAFqw3ECABPkBABEKyjZHFmwBJBguKt4gXsYiXmKAYAeZihCwkDBIDUSISLvy+7GM1rZ7d2dn32dnn88dUT0/Py3b3Z/pldne63WEYJhp0UyMYhokI7B7DRAd2j2GiA7vHMNGB3WOY6MDuMUx0YPcYJjqwewwTHdg9hokO7J49+d///d/ly5e/8MILo0aNGjhwIJYIIwbxalImSrB7dqO1tTUtLS05OXmgJxCPrUij7sZEHHbPVtTX1//oRz9ShdOBNEip7sxEFnbPPjQ2Nj7xxBOqZ15ASqRXD8FEEHbPJty+ffu5555TDTME6bGXeiAmUrB7NmHTpk2qWybAXuqBmEjB7tmE//f//p8qlgmwl3ogJlKwe3bgz3/+s2qVabCvejgmIrB7dqCyslJVyjTYVz0cExHYPTtQVFSkKmUa7KsejokI7J4dYPdiEXbPDnCfMxZh9+wAz7XEIuyeTeBnDDEHu2cT+Nl6zMHu2QT+TlnMwe7ZB/4udWzB7tkK/g1RDMHu2Q3+7WyswO7ZE/7PCOvD7tmfhIQENYqxAOye/WH3rAm7Z3/YPWvC7tkfds+asHv2h92zJuye/WH3rAm7Z3/YPWvC7tkfds+asHs2pLm5WV5V3FO2MtGC3bMhJSUlNTU1YlV2D/HYKlaZKMLu2ZC2trbBgweXl5fTqnAPMYjH1ntJmejB7tmTN998MykpifQj9xBGDOLVpEyUYPfsicvlSnID5eAeiQcQryZlogS7Z1tGjRoF2Xr16gX3sEQYMWoiJnqwe7alsLDQ4XAkdIIwYtRETPRg92xLW1vbwIEDhXsI8yyLpWD37Mybb745ePBgiIclz7JYDXbPzrhcrqFDh8I9LHmWxWqwezZn1KhRcI9nWSwIu2dzCgsL4R7PslgQdi/S/N///d+f//zn9957b/78+fPCT0ZGBtzDUt0QBvCJFixYUFJSwl8ZNQO7Fzn+/ve/r1+/Pj09vaioqL6+XosU27dvV6PCyenTp5cvX46PKX+nlNHD7kWII0eOzJw50+VyqVXVvpSVlaG9vXnzppoXjBt2LxKsXr0abZ1aN+OAhoYG3HGwVHOEYfciwO9+97s9e/aotTJuuHbtWlpa2o0bN9R8iXvYvfCCfld5eblaH+MMtHtZWVlq1sQ97F4YaW1tzcnJUWtiXLJlyxZ+uK/A7oWR3NzcS5cuqdUwLrl+/XpGRoaaQfENuxcuOjo6FixYoNbBOKagoODKlStqNsUx7F64+OSTTw4ePKhWwDjm9OnTpaWlajbFMexeuFi4cKFa+4Jm3LhxalRXlAQ7duxwOp1yjMPhoEB2dnZlZaW8SaawsPDjjz9WY4MGeaJmUxzD7oWLvLw8terpgACDBg1yuOnevTsFCDWpm+rq6vT0dCWytrY2Pz9frHbr1k2EZffomOLIxu6BsWPHnj9/Xo11I182kZSUZHw0AnmiZlMcw+6Fi9zcXLXq6ZAFkH2TwzIe3QMQDJsq3cA9Cnz55ZfG7nXrZNOmTSINuO+++ygA+vfv37t3bwQmTZpEaWhfxTR9jEeQJ2o2xTHsXrgIoXtLly4lAWTQTooEu3btOnfuXHYnaIWwTE1N9eZeSUnJokWLEBgzZsyZM2fEcYipU6du3LgRgYsXLyKMgysJ9KbpYzzC7smwe+HCpHtm+pxL3cgxmuSnGOOVlpai/yk2YWkw3vMIxnhIMHjw4J49eyIwdOjQBx54AIERI0bIyfSm6WM8wu7JsHvhwqR7Jts9A/fQ24RgBw4cEJFiqbj3jW98w6FDbAXr3DQ2Np48eRKrLS0tR44cQWDkyJFysoKCAvUoDse+ffvkNB5h92TYvXARWvcM+pxnz56FY7RLfn4+ZKOpF4fOvb59+1Kgrq6OArSXgNxDZ5V+dgQJZ8+evXv3bsW9gGH3ZNi9cGHSveD7nKC8vDwrK4vCYp7T4d09sa9yIojXv3//tWvXisuYPHkyhnwPPvigSCM2ib6uPsYb7J4MuxcuTLpnst3Tu7dz504KjB49GlKh56n56nOacQ/s3bsXvmnu5vGFF17QuvY59fvqA95g92TYvXARbvdk6BnDwYMHyTQsYR16nop7GRkZmrthROJp06ZpbhnEVk1yT8y1sHvhg90LFz7dwzitrKystbWVVr25h2QYgBn/ApDcmzJlSlNTk9Y5+6J5+l4LuoXVbsg9zf0VFtGEknsisYDdCwfsXrjw+b2WlJQUIYDWWXEnTZrkcCPikQyDLrHqEQiGZEokNEtOTib3UOnpsPSIHO499NBDFJOUlCSerevd27ZtG9LI4z15XOotxhv8vRYZdi9chOP7nLEOf59Tht0LF/w7BgX+HYMCuxcuOjo6fA754gr+/Z4CuxdGMLzh360T169fz8zMVDMovmH3wkhra+u8efPUahiXbN26lf+vRYHdCy9btmzh/ylraGjIzs5WsybuYffCDsY5xk/n7A3/P6c32L1IsGbNmrj9X2qIx/9L7RF2L0IcPXo0Dt/HkJmZye9j8Aa7Fzn+8Y9/bNiwIfLvIYowp0+fXrFiRUZGxpEjR9QsYCTYvSjwxRdfvP/++wsWLJgfERISEtSo8IBPlJubW1pays/xzMDu2R+4p0YxFoDdsz/snjVh9+wPu2dN2D37w+5ZE3bP/rB71oTdsz/snjVh9+wPu2dN2D0b0tzcLK8q7ilbmWjB7tmQkpKSmpoasSq7h3hsFatMFGH3bEhbW9sjjzwi9BPuIQbx2HovKRM92D178vLLL/fv35/0I/cQRgzi1aRMlGD37InL5UpMTExJSYFycA9LhBHDPx63DuyebXn88cfR0A0ZMgTuYYkwYtRETPRg92zLsmXLevXq9fDDD8M9LBFGjJqIiR7snm1pa2vr06dPQicI8yyLpWD37My4ceOEewirm5mowu7ZGZfL1bdvX4iHJc+yWA12z+Y8/vjjcI9nWSwIu2dzli1bBvd4lsWCsHshQHO/xXKRJZk7dy7cw1LdYBnmzJmDDFTzNA5g976mX79+oyUGDBjw+9//Xk3kCdSb1NTUxsZG5e+6rMP27dvVKCvR0tKSlpamxZ9+7N7X/OQnP5FXly5dasY9zfLixQQ+9Ttw4IB8Z3zcDYX/+Mc/qqljBHbvawJo9zQWL3T41E/G6XReunRJjY012L2v8bfd01i8UGNGv7/+9a9TpkzBzbGhoQFhdXNMwe59zfDhw7Mknn76aQP3NBYvPPjULz09/ezZs3Bv3bp1CH/00UdqitiB3fuaQ4cO/b4r169fVxO50Vi8cOJRv+bm5nfeeQfKIduxigCWCG/atGn//v1yyhiC3btbkAK0fn379pVjMMqXE2umxZs8ebIS89prr3366adKpEf++7//W40yzciRI9UoHfn5+efOnVNjdezatWv58uVqrHSKnJycw4cPd914j+eee06NModeP+T5sWPHxOqKFSs8hmMLdu9rcFvFEm6g1K+7kcue0AzFq6mpefnll8+cOYOxImqkN/dWrVr14IMPjuwEYSUZOH/+/Pjx49VYN+hoDR06VOyOMGLkBGbc09y3BlRxJRKy9e/fH0fo1avX8ePH9e796U9/2rt3rzhFmNzTPOkHfvnLX8q3xR/84Afy1piD3fsammuBG2j6Jrp544035ASaoXgENNixYwfce/zxxx966CHU0R//+Mdiq2j3Vq5cuX79egTQs5XNIZf69Okj1PrWt76lHIROIVYRNnDvzTfffM7Nb3/7WynJXXCPmDp1qhIJ2RYvXpyRkTF9+nRyb8SIEePdIJISYNOwYcOwtampKTs7GwLgjC+++CKdYvfu3T/u5Lvf/a4IA/H6a9xZSB4E5LMr6PVD0UgF8nXPM3Zh9+6CarFo0SIMHuBGVlaWutmceILCwkJN1+dEHe3Zs+ezzz6L8FdffYVa+8knn7z++usXL16Uk0EJKHr69GnN3aqgkZS3aobuka73338/ltADMT/84Q//7EYWkjBwD4nJPXkvCiPBf/7nfyYlJU2bNg2ybd68GfG41yCeWrnW1tbLbuAqrm3dunW0Cq5cuUKHgjNKwBuKfuye3UARQoM77q8+ehzvaSbEo3oPDh06RAFq98AzzzxDaajdw83e5XKhLo4dOxbLP/zhD+i2kYGo99/73vfEoYjevXujmydOZLLPKS/lgAAx+h6j7N5vfvObsrIyNNEiPZYvvfTS2bNnKYw+NsXL7hFFRUVr167FwZ1Op4gU/OIXv6CAT/e0rvqhdOSi+eY3v6mWZUzB7t1F/MjNG5999plaKTwhGiU0erjNo9cqbyX3kAZ6a53DISy7detWUFCgud2Dlh9++CGdbsmSJc3Nzai+sns+MeNeQ0MDzpufn//xxx/L8bJ7O3fuxEf49a9/TZvkI8ABeIVrI3sV9xYuXEjfYvPmHoF7kMFYUebcuXNqeehQSzQWYPfuYlx4V69eRf/KuN0jDNxD7RzjBmG0jVgdNWrULjciDeo9KisOQvHgZTfCvZGdvPLKK1jFUsSIg1BYXsoBAmrV1dXp42X3xFwLWjCRssBNYmIiRoBHjx595513Tp06lZmZefLkSeEeept0SRj0otGm8I+lISthptEDyPYZM2ZounkvGePisyzs3l18Fp5J/cg99NP27dtH7mGXQYMGae6BGcSjuZbq6mqsokbucCN2R73/6KOPMJRCjUf8j370IzSAqOWye3LAo1ryJo8JMJicPXs2jb527949f/58sQmr6HgjMRKcOHECPUx0idGs0bgOCaDZhAkTnnjiCYTx6ajzTCNb/aymcbsnep4GmBHvjonisybs3l3MFJ4Z/cg9VDh0k65du4aBCgaKGPjRVvGMgZoC8aRBTEJSnxPuocVA/Le//e1Lly7JfU7FJb1alZWVe/bsMUiguR/ubdiwgcIw8O233/7888/FVpwLIz0ay9EM53/913/hXiAfwWOY3KNPRMjtHlFVVSV29OmeSfHumCs+C8Lu3cVk4Rnrh/qKuoIqJR6g19fXo9uGNpBWlWfr+oaC3FMi/XIPp4CuImbYsGGi3lMCiLdlyxYKEzRaE6s4Ahrb9957T3zML774Ah1UcQRNOh2SlZSUUFj/cYzbPeM+p3nx7pguPqvB7t3FfOEZ6EdjMK3rvZ8YO3YsljiLv+5hmCTPc9LzA0KTToR4WoUJf/zjHxEYMGAAxdCOIr1QRYbGjWVlZUOHDsU1aO4BIcZ7tBUH79mzp5yejnbhwgUkbm5upmuQExDG7hngl3h3/Ck+S8Hu3cWvwjPQjwkef8W742fxWQd27y7+Fh7rFyYCEO+O/8VnEdi9uwRQeKxfyAlMvDsBFZ8VYPfuEljhsX4hJGDx7gRafFEnTt0L1ZtZWb+Q4K94oSq+6BKn7oXwzaysX5D4K96dkBZfFIlT97y9mfXw4cMBvJkV+r3zzjvzmYDIysryS7w7oS6+aBGn7oHnnntu4MCB8ptZDx061Ldv3ylTpqhJGethg+KLX/fefffdxMTEoUOH0ptZUXL9+vVLSkrid4bEBDYovvh17+9//3uvXr2eeuqpxx57DIWHknv44Yf//d//XU3HWBIbFF/8ugd+9rOfodheeumlBDf/8R//UVhYqCZirEqsF19cu/fpp59SsQF0YJKTk2NlmM7cif3ii2v3wPe+9z0qvFGjRsXQMJ0hYrr44t09DNmp8BwORwwN0xkiposv3t2jITsKL7aG6QwR08UX7+7d6Ryyx9YwnRHEbvEF7t6tW7eqqqoWL16svkc01nj77bcTrP1mVjOgICoqKtrb29VyijgRrhiRLL7QZnIg7rW1teE68vLyDh8+fOPGDfX7eTGIxd/MagYUxLFjx/7nf/4nJyfnwoULaplFhGhVjIgVX2gz2W/3tm3bNm/ePP7qsGW5evUqOmBwoKOjQy28cBJXFSMkmeyfe6tXry4vL1cvhLEen3/+eVpaWsR+TROfFSPITPbDvTVr1tD/zzExQUtLy6xZswKuGeaJ54oRTCabda+2traoqEg9M2Ntrly5ghtzMP0in3DFCDiTTbn3j3/8g95HwcQc6BctXrxYLdEQwRWDCCyTTbm3YcOGI0eOqCdkYgT0CVE51EINBVwxBAFksm/3/vnPf9J7D5kY5dq1a/Pnz1fLNWi4YsgEkMm+3fviiy/ivENvA959991QPREWcMVQ8DeTfbv3/vvv19fXq+dhYooTJ05UVlaqRRscXDEU/M1k3+7Nl94RFRLGjRunRnmhW7duSozT6ZRfmmVMYWGh8m5Hf3E4HGqUJ0pLS2tra9VYL0yYMEGNciOfy/i8fmUC8Ze//CWAyQBjIlkx5BenIBlyoLq6WtrehSeffFKN6krwFcMj/mayb/fEK+q9kZ2dPWjQIIeb7t27U4BQk7pBrimvKSZQffPz8xFYvnw55aw3986ePZucnJyYmChO1KNHDyUlMXbs2PPnz6uxbuTLJpKSknDfktM4vHwEPd7qDT4IXScumF4MEhX3bty44Ve1MEPEKoame0U7uSeyVMGne1rQFcMj/mZyaNwTVyZnawBZXFBQgIbbp3sInDp1Sv4ixZIlS0SY8uu+++4Tede/f//evXsjMGnSJJFMvmxvMcpHmNxJZmamHE/or1Zzf1hcc1lZGb2XT3PXnjWd0MvcKY18LuW84MyZMzmdPPXUU6+88opYBbt371bS6/GrWpghkhXDo3siSzX3u806S/vujViE5XsixYSkYnjDr0yOnHtLly6lzymD26GcBjmI1i83N5e2ojY7pHxBdk+cOHHZsmUicXFxcVNTEwqAKrHM1KlTN27ciMDFixcRll8xR+gzVPkgdHkUoMiUlJRqNyJGxsA9pKeKgmt2doLPggujNN06QTyW1Fri7KJ6oalf6mbKlClPP/00/KdVgm5VxvhVLcwQmYpBq6QTcg/uiT5nYO1ekBXDGL8yOTTumelaUC2RYzRdMRA7d+6kgFKb0R4+88wzb731lojZvHkz6uLBgwelVBq68jjs4MGDe/bsicDQoUMfeOABBEaMGCEn02eoPoYuT1ykPiB4/vnnjx8/jqUSr7gn74hNwj2xiZbKXmIX8NOf/rSurs74xZEe8atamCGSFcO43cP9Wj643O4RVKNCWDG84Vcmh8Y9k7c3gyymPMLNnloVUVQUoHGg1tnnRE8dZYAsw6ZRo0bREjHosiLNOjeNjY0nT57U3N+4o+e/yvsZkZhOISPeEUs4TLunpBTIFvXt2/fw4cOiRy3co36RvG9JSQl1omT30McWfd1YcS/4ikEYu4fuDxX9uXPnXnzxRUpJXSF0i5Bp9HXTEFYMb/iVyRF1z6BrQVCeat5rORIMGTLkq6++2rt3L4ZAWmdh4M4nYiiLU1NT6WddyOvZs2djROTx3ajG0Nn1F6NcFRpeqgR0a5A36VswLNGBpE3kHoE0GAHSi87FeWX3EEAvy+FGvrXLYxUD/KoWZohkxUApQzDcj/BhHe57NPr/js6bMk0y4xbWp08figf0ht3m5maqFVpIK4Y3/Mrk0LgXqq6FsXsOd6bTeA93NTqFqIUiGfIXY+i1a9dSPMDoCLX8wQcfFGnEJjEW18dQpFh6DBByUyZUIfTuTZgwgWwR7jnd4KORuk73sJAC+j4nESvtXkgqxoYNGxISEjC+QHju3LnIwGHDhj377LMIYJNIJsBQBadWY0NaMbzhVyaHxj2Ttzd9FouhHUHuodEXI2CHu7Mu+lpUHe/t4KkW0u0NzSDVbIyOXnjhBa1r10Jcm0FAhPWb5DRa18cG4vZB4KaLviLS08QsAjQzSRMqdIW4m4wfPx5tGsLQkj4gHSfW3Qu+Yjg6p1jEpjFjxqDjgLZObvBRysirt956Cxm7oxOE5Um4EFYMb/iVyVF2T4EqXFpaGvXKAAZ1NK8lEuxwP99zdCLaPVESIovFkDqwLIYq1F3RbxIBzT3dKt999bZQDA1IxDyn7B4hH1O0n+Jojq7opxP0M70KflULM0SyYsjuofQpD6XtX2cUgcZNhOVzhapiGOBXJgfrHjKirKystbWVVr1lMZKhn238C0vcyZBZuKvhhiQiT5w4gYooVHSabveUSM3/LHbqOsByx4liYBTGIRQWiK0EHae0tFS+coQN3KNbOyVzxma7F8KKoXX9vKKeSNvvIvqE9IyBVvXtnlgV+FsxDPArk327Z/zVIQxtp02bJlbp+mhALF8rkqFvLVY9ou9hy9AAD4OiANzbtm0b9pW79XqLlBhH5zje0fVZkxwQafTQcXDN+OAkj2wRbaWDyLvIAZrn9DaPov/Uxty8edOvamGGyFQMKnf63hLliVJPkICeMWCJGxwC4vmenFgLUcUwwN9MDtY9Jibw96uGZuCKoeBvJvt2D7eK06dPq+dhYgqXy1VVVaUWbXBwxVDwN5N9u3f58uWVK1eq52FiiiD/zc4jXDEU/M1k3+6Bd9555/r16+qpmBihqakJ1UIt1FDAFUMQQCabcq+mpqasrEw9GxMj5OXltba2qoUaCrhiCALIZFPugYyMjIaGBvWEjOXZvn37tm3b1OIMHVwxtEAz2ax7N27cmDFjxrVr19TTMhZm//794X5BD1eMgDPZrHvg4sWLM2fO5JtcrPDee+8VFxerpRgG4rliBJPJfrgHbt68iT4Gd/EtjsvlmjVr1vHjx9XyCxtxWDGCz2T/3CMwwk5PT1+xYgU/3rEU9fX1RUVFmZmZcOD27dtqsYWfeKgYIczkQNwjrly5UlpamutmQYyTkJCgRsUUVAoffvhhY2OjWk4RJ/IVIzLFF/JMDtw9O4HCU6OY2CFGi4/du0uMFh5DxGjxsXt3idHCY4gYLT527y4xWngMEaPFx+7dJUYLjyFitPjYvbvEaOGZQdM0ej2lusFGxGjxsXt3idHC8wmUmzFjxmeffYaljfWL0eJj9+4So4VnDInX2Niouf+L0sb6xWjxsXt3idHCM0AWj7CxfjFafOzeXWK08LyhF8/e+sVo8bF7d4nRwvOIN/EIW+oXo8XH7t0lRgtPj2YoHmE//WK0+Ni9u1iz8Jqbm0tKStra2tQNXtBMiEf4qx+uAVeC61E3WANrFp9P2L27WLbwampqhgwZ8sYbbxw9elTd1hXNtHiESf1wXpwd14ArUbdZBssWnzHs3l2sXHgHDx7s3bt3UlLSqFGjCgsLPTaDmp/iEQb64Sw4F86I8+LsuAY1hZWwcvEZwO7dxeKFh6rfr1+/xMTE4cOHDxgwQGkGtYDEI/T6UUOHs+BcOCPOa3Hx7li++LzB7t3F+oVH+iW4GTx48KOPPkrNYENDQ8DiEaQfjkMNHY6M49OJYkK8O7FQfB5h9+5CVS1GWbt2reqTn+AI6kFjDbVEYwF2LzaoqalBc9SrVy+qahiDPfbYY++++y7aq9TU1CDbPRwBx8HRcEwcmU6Bc+GMVp5iiXXYvRiAxEtKSsIADG688MILR44cEVvhT8D6kXiaNN7DkXF8nAXnwhlZv/DB7lkdVH2aaKGGzts8ZwD66cUT4CzUDNJ0C+sXDtg9S0PP9372s5/JDZ1HND/1MxBPBufF2S3+fC9GYfesSwDfazGpn0nxBBb/XkuMwu7ZCs2Efv6Kx4QJds9uaIb6sXjWgd2zIZoX/Vg8S8Hu2RO9fiye1WD3bIusH4tnQdg9O0P6ffbZZyyeBWH3bA6US0hIYPEsCLtnf2L0q8a2h92zP+yeNWH37A+7Z03YPfvD7lkTds/+sHvWhN2zP+yeNWH37A+7Z03YPRui/NhHcY9/CmQR2D0bUlJSIv/UVXYP8dgqVpkowu7ZkLa2tkceeUToJ9xDDOLN/xiXCSvsnj2ZMGGC+J8Vco/+9wXxSkomWrB79sTlciUmJiYnJ0M5uIclwohBvJqUiRLsnm0ZPnw4/clfgvuvrBFGjJqIiR7snm1ZuXJlnz596O90sUQYMWoiJnqwe7alra2tb9++CZ0gzLMsloLdszMvv/yycA9hdTMTVdg9O+NyuQYMGADxsORZFqvB7tmc4cOHwz2eZbEg7J7NWblyJdzjWRYLwu6Fnfb29vLy8kWLFi1cuDAv4mRnZ8M9LNUN4Qefd5GbqqqqW7duqfkS97B7YeTzzz+fM2cOKt/Ro0fF/2RGnu3bt6tRkeXw4cNQEfnAE60y7F5Y6OjoQG0rKCi4evWqWhPjlS+//HL+/PnoAqiZFa+we6Hn8uXL06dPP3/+vFr7GE2rrKwsLCxUsywuYfdCDMSbOXNmS0uLWumYTvbt21dUVKRmXPzB7oUSdDVTU1NZPJ8UFxcfP35czb44g90LJRjjnTt3Tq1ojCdmzZp1+/ZtNQfjCXYvZGCAV1BQoFYxxgsul6usrEzNxHiC3QsZc+bM4VlNv8jKylIzMZ5g90JDe3v7woUL1crFGIJRX2Njo5qVcQO7FxrKy8uj+wA9Fqmvr//www/VrIwb2L3QkJeXp9asoBk3bpwapWP06NFqlCccnUyaNEnd1smECRPUKDfYy2NYj9Pp3LFjhxprCPJNzcq4gd0LDWbcy87OHjRoEDnQvXt34YO3Cl1dXZ2enq7GdsWjewcOHJAP3qNHDzWF++CJiYnYmpycDGc0di/isHuhITc3V61WOuBeZWUlhc1UaI/udQp11xnIA68oIOIhHu27tBMIL8IbNmyg4yABVCkrK4Mt5B40XtOJOAg2yZcnh4kzZ87kdPLUU0+98sorYhXs3r1bSa+AfFOzMm5g90JDCN2DIb179xYuEWgn5TQtLS0LFizAIBPCnDp1KjMzE0s5gXDv6aefnjJlijf3cGRyLz8/39nJxIkTp06dSmm6dYJ4LKm1xMUIY8+ePUtHxllwrsmTJ4tzAaSXr0oPu8cEi0n3zPQ5qdbKMZrOT9HV1Ac0qW0E9E+BcozD3TYq7jmk42OTcE9soqWyl9gF/PSnP62rq/PYBzaA3WOCxaR7Jts9A/eo9qOrSRYJEPPiiy9ia1NTk9gLJnh73C9b1Ldv38OHDy9fvpyaKeEeTfaIU4OSkhK0kLSXcA/NLxpeCrN75mH3QkNo3TPoczrd8xn6Ko4YNDvYiiXFvPrqq/fff/8PuiLS61swLNGBpE3kHoE0GAHW1NRQmJayewiIplW+KRjMqQrYPSZYTLoXwj6nvLtDN5mJ1qm4uHj48OHVElgVCfTuTZgwgWwR7jndoNdKwjvdw0IK6PuchP6mYAy7xwSLSfdMtnt693bu3Cmv6qu4HJOTk7Np0yYEoM1kCayKNGfOnEFfEac+deoUBWhmkiZUyL1ly5aNHz8ebRrC0JKeH0A5JGD3gofdCw3hdk/BuN07ceIEBZRhodI2kj80IBTznLJ7hEO6PGottc59aatyCiWGHld4g91jgsXns3UMpcrKylpbW2nV4cU9JEtNTd2zZ4+ICQalFVJWqQUrLS2lBo1A2MC9MWPG0JgwVO0eP1tngsWneykpKdOmTROrVKHRkaPGQcQjGTqHYlUPpTdAbmcM2j2cSGnBNOngIhlFygGa5/Q2j8LumYfdCw38I4bAQL6pWRk3sHuhoaqq6tChQ2rNYgypq6tbv369mpVxA7sXGjo6OsxMtzAyq1atunLlipqVcQO7FzLQfbp06ZJavxgvXL9+nX+3zoSG1tbW+fPnq1WM8cK2bdvi/NVI7F4o2bp1q3iCxxjQ2Ng4Z84cNfviDHYvxGAMs3fvXrWuMRLoIMyaNevGjRtq3sUZ7F7oKSoqKi4uVmsc4wYtHsRraGhQcy3+YPfCwrFjx5xOJ8YzatWLbzDGy87OvnnzpppfcQm7Fy5u3769efPmzMxMNIP19fVqNYwn6urqfve732VlZcX55IoCuxd20Mv68MMP8/LycqNEQkKCGhUp6A2YGzZsiOfneN5g9+wP3FOjGAvA7tkfds+asHv2h92zJuye/WH3rAm7Z3/YPWvC7tkfds+asHv2h92zJuyeDWlubpZXFfeUrUy0YPdsSElJSU1NjViV3UM8topVJoqwezakra1tyJAhQj/hHmIQj633kjLRg92zJ5MnT+7Tpw/pR+4hjBjEq0mZKMHu2ROXy5WYmDhw4EAoB/ewRBgx/G1m68Du2ZZ/+Zd/gXUPP/ywWCJGTcRED3bPtqxatWrAgAEJnSCMGDUREz3YPdvS1tbWr18/4R7CPMtiKdg9O0PvHoJ49EIidTMTVdg9O+NyucR4j2dZrAa7Z3NoxoVnWSwIu2dzVq1aBfd4lsWCsHteaW9v37Zt28KFC6P4VyvBk5WVBfewVDfEDvSnL6CqqurWrVtqOcUs7J4Hzp8/n52djcI+evSo+p9bMcj27dvVqNjk0KFDUHHRokX2mLBl97rwt7/9DaVbUFBw9epVteQZa9DY2Dhv3jx0SdTCizXYvXs0NTWlpqai0VNLm7EeFRUVhYWFahHGFOze10C8GTNmtLS0qIXMWJW9e/cWFRWpBRk7sHt3QVcTLR6LF3MUFxcfO3ZMLc4Ygd27C8Z4586dUwuWiQWcTuft27fVEo0F2L07sK6goEAtUiZGOHLkSFlZmVqosQC7d2fOnDk8qxnTxOi7o+Pdvfb29ry8PLUwmZiiqKiosbFRLVrLE+/ulZeX2+MBejxTX1//4YcfqkVreeLdvXA0euPGjVOjvNCtWzclxul07tixQ4nUM3r0aHnV4XDIq5ruOAgjRtrugQkTJqhRbuSD608kY+biCwsLP/74YzU2aFCOatFaHnbPt3vZ2dmDBg1yuOnevTsFCDWpm+rq6vT0dDVW02pra/Pz8xFYvnw50mje3Tt79mxycnJiYqI4UY8ePeRkyuSQciVNTU04Du2F5YEDB4qLi8UqxeAC6Pg4EWkZGffA2LFjvX2BQc5qIikpqbKyUk2ng92LPXJzc9Vi1IEKIYrfTEX05p7mdubEiRM+3UPg1KlT6A+L+CVLlogwDnL48GGxqumuRBxEKEoB2VhcAJKVlZWJJhFt6ZpOIKdIY/yRz5w5k9PJU0899corr4hVsHv3bkpGIt13330UAP379+/duzcCkyZNEkeTs9pbjEdQjmrRWh52L2TuLV26lCqTDNpJOQ3aPbR+OClthXsOqfKhrk+cOHHZsmUiMdorasRIBs39/uQXX3wRq3BGNIxya4xN0Bv7ihgZ+VzkFbmH9M5OcA1Tp06lNN06QTyW1FridMJYNNFL3UyZMuXpp5+ePHkyrRJ0ixHgsBs3bkTg4sWLCO/atUveqnkyTR/jEXYv9jDpnpk+J9U2OUbT+Uns3LmTAkq7h/bwmWeeeeutt0TM5s2bUacPHjwoYtCwoHlBk5KZmSkaRv1ZIMa8efMqdYiBouKefARsEu6JTbRU9hK7gJ/+9Ke4LygDUQHGeNhr8ODBPXv2RGDo0KEPPPAAAiNGjJCT6U3Tx3iE3Ys9TLonil+uo0qNN3bP4QaNBqqvQ3KYAjQO1Dq7ixgOoRKjXmLTqFGjaIkY6jSiqUHTR+lR4+k4hJjmoeYrW4dH9/r27YtOrOgJC/foaA7pY5aUlFCLKruHWwBuBBT25t46N42NjSdPnsRqS0vLkSNHEBg5cqScDB9Q/jjEvn375DQeYfdij9C657PPifpK9VvsKwIEEgwZMuSrr77au3cvhlJaZ21GT5ViMA5EGtpkANIkJyd3vZa7eHSPLMISVtMmco9AGowAa2pqKExL2T35XGI6x9F1IEfupaam0o8JIeHs2bMxGlTcCxh2L/Yw6V6o+pzG7jncDSON9zBso1OI2kxp5PlPNEEG7Z5ffU7NPc9Jtgj3nG5wOqe7NXa6h4UU0Pc5CYN2r3///mvXrhWXipEhzvLggw+KNPpPoY/xBrsXe5h0r9Jcu6d3TwztCHIPPSsxzYCDII3os1G1vreDrjajcyhPVz733HPSxnuXhOPjslHdRW/zySefRC+0uLiYEqDlRF8R6WlCFQGamaQJFXIPd4Hx48fDdoShJV0YfYQA3ANouunIGBm+8MILWtc+p7h4g4A32L3YI9zuKVDFTUtLo94dwKAON3VRj8k9bHV0Ito9uQuH9mfatGm4Ko/u6fd1uFtU0TOkWVPyh0wW85yye/IxCWotNelhvTg+IZ+RoHMJ98RcC7sX7+75fLYODcrKylpbW2lVrgRyGMkwmNmzZ4+I0YMxG+rrmDFjcNcXkSdOnECFFir6bPfuVmeHA80X7eXRPYG8r/7IdCMoLS2V4xE2cA8XT5caWLunxobOPX62Hnv4dC8lJQUtjFilSoAm6K4BUoVAMgxgxKpH9MMYGRrgoXUydk+p9MOHD1eOQ/E0GymSaTr3cMFKC6ZJFyaSUaQcoCPLjbCMefe2bduG48jjPXks7S3GG+xe7MHfpbYB/F3qmIR/Q2QD+DdEsQr/djbW4d/Oxir8nxExDf9nRGyDbif/V1KM4uT/SoppOjo6+D8CY5Hi4uLjx4+rxRkjsHtf09TUNHPmTNYvhti3bx//N65NuHz5Mv8nfKzA/wlvN9D5zOV3oVibL7/8cv78+eXl5WrhxRrsngc+//zzOXPmLFq0iB+7W4rDhw/n8jvA4oH29nbcXOndlzFNQkKCGhVroBSgHL/7kokx4J4axVgAds/+sHvWhN2zP+yeNWH37A+7Z03YPfvD7lkTds/+sHvWhN2zP+yeNWH3bEhzc7O8qrinbGWiBbtnQ0pKSmpqasSq7B7isVWsMlGE3bMhbW1tKSkphw4dolXhHmIQb48vZNkAds+e/PrXv+7duzfpR+4hjBjEq0mZKMHu2ROXy5WYmNivXz8oB/ewRBgxiFeTMlGC3bMtTzzxBKzr37+/WCJGTcRED3bPthQWFiYnJyd0gnCs/9jUZrB7tqWtrY2aOwJhnmWxFOyenfn1r3/dq1cviIclz7JYDXbPzrhcLup2YsmzLFaD3bM5NOPCsywWhN2zOYWFhXCPZ1ksCLsXBTRNy8zMXBARcCK4F8nT4dOpH5jxBLsXOP369RstMWDAgN///vdqIh2omqmpqY2NjcqfcIWP7du3q1FhA58Ln05j/UzA7gXOT37yE3l16dKlPt3TIi5e5DGj34EDB+Tb1uNuKPzHP/5RTW1T2L3A8bfd0+JAPMKMfjJOp/PSpUtqrN1h9wLHr3ZPixvxCJP6/fWvf50yZQruXA0NDQirm20Nuxc4w4cPz5J4+umnvbmnxZl4hBn90tPTz549C/fWrVuH8EcffaSmsC/sXuAcOnTo9125fv26mihexSO86dfc3PzOO+9AOXpXMwJYIrxp06b9+/crie0KuxcI8jAPrV/fvn3lmAMHDoiUmj/iTZ48WYl57bXXPv30UyVSYe/evdOnT6fwyJEju268i8vlys3NRWDq1KnqNjfPPfecvKo/iM8EBnjUDzHHjh0TqytWrPAYtjfsXuDgzo0l3EhLS7vuRqlhmi/xampqXn755TNnzmCsePjwYW/urVq16sEHHxzZCcIiQUZGhsXd07zoB375y1/K96wf/OAHSgJ7w+4FDs21wA00fRPdvPHGG2Kr5ks8AoOcHTt2wL3HH3/8oYceQrX+8Y9/LLaKdm/lypXr169HAD1b7CISIL1wD701yCw2ESdPnkSdpjDc27Vr129+8xv5FFqnWvX19Vu3btU8qUUJvvzyS9wg9AnOnz9P8hi8utCjfsg3eXW0u+cZP7B7ATJv3rxFixZhfAI3srKylK2aOfEEhYWFmq7PCWd69uz57LPPIvzVV19lZ2d/8sknr7/++sWLF0Ua2b2CgoIhQ4b8oJPNmzdDPOz1/e9/v7i4ePz48Y888gjSkMxoMLGsdDNixAgs9+zZ43Q6Efnoo4/iEz3zzDMIb3Xzr//6r1hifIubC51UXACAM0rAI3r92D3Gb1BLoAECy5Yt04/3qqqqzIgn+pCo0xSgdg9Qvdc62z20J+g3Xr58eezYsVj+4Q9/QPtDBo7sdA8tHho0OunITjdeeeUVeRW79O2EIpe7QZOL5c6dO+HerFmzBg4ciKNRgl1uRo0ahSVOSu7df//92Dpu3Dg67C9+8QsKGLun6fRD1sn59s1vfrNLLtsdds8z4iengfHZZ5+p9c4L1OfU3I3elStXqHILyD2kgS1aZ98Py27duqEF0yT3tm3bhhgYQpHyQZqamkT4UidyJB325z//OVo8NJW0u3wQSnD8+HGP7R6BGwT1SI1BzqiZ5SdqUcUs7J5ngilj1LAZM2b4bPcIA/cg0hg3CKNtFO0PCUZAg3feeUeM9xYvXgxXqW0RJCYmulvTr/nud78Li+QEpBbMoT7nd77znY0bN8qNmBn3fDZ6mrvdQ85oukkX8wRTLlaD3fNMkGWsmdaP3Fu5cuW+ffvIPew1aNAgbEI8xKPhWXV1NVZR6Xe4Ebs/+OCD//Zv/ybPc4rWT0CqoMO5ZcsWBDDwU9zDcG7NmjXYi9xDeowPL1y4UFtbSwkwYqRv7Ri4J3qe3ghevDtBl4ulYPc8E3wZa+b0I/dQ6c+dO3ft2rW0tDS0Whj40VbxjIGaLPGk4be//S0lyM7Olp8xoL3CJmW+kVQ5c+ZMTk6O1tW9559/Hnpv2LBh69atYq6FZkGhItLT6SoqKuTxXgDuhUS8O6EoF+vA7nkmJGWs+dKvpqYGCVBrxQP0+vp61HK0gbSqPFtXnrMRwr2ysjI0X59//vlLL70kJ6AHD7/61a+gH7TJy8trbm6mTaWlpTRu1KQ+J0Hu4UrET5AC7nOGSrw7ISoXi8DueSZUZawZ6kfzkJq7NiuMHTsWS1yGSfdwKHpsQGBfqEjTlQTaVdqEZGjZxKll0PUV6YcOHUrtJAFjhw0bRkNHmucE+fn50t6eCaF4d0JXLlaA3fNMCMtYM9TP3oRWvDshLZeow+55JrRlrMWlfiEX706oyyW6sHueCXkZa3GmXzjEuxOGcoki7J5nwlHGWtzoFybx7oSnXKIFu/c1kXlXqxYH+oVWvMiUS1Rg974mYu9q1WytX2jFuxPBcok87N7XRPJdraiaWVlZeXYEnyuE4t2JbLlEGHbvHvyuVmti13Jh9+7B72q1JnYtF3avC/yuVmtiy3Jh97rA72q1JrYsF3avC/yuVmtiy3Jh91T4Xa3WxH7lwu6p8LtarYn9yoXd8wC/q9Wa2Kxc2D0P8LtarYnNysUS7l26dGnt2rW5btQXmUaDCL+r1RjKlry8vPXr11+5ckXNu3DC5WJA8OUSTfdu3769adOmjIyMoqKi+vp65ZuB0SWS72o1yenTp1euXImaF+7RDpeLXwRcLlFzr7a2Ni0tDZerfhTGF1u3bs3Kyrp586aap6GAyyVg/C2X6LhX5Ea9dsY06A06nc6GhgY1Z4ODyyVI/CqXKLi3atWqPXv2qFfN+Mm1a9dmzZp148YNNX8DhcslJJgvl0i7h3a5oqJCvV4mIHCXzc7OVrM4ILhcQojJcomoe62trfPmzVOvlAkCOOPvEF8Pl0vIMVMuEXVv4cKFuCWol8kEwfXr1/VvIPMXLpeQY6ZcIudeR0dHrvvtp0xowTgtsOdLBJdLmPBZLpFzr6qq6tChQ+oFMkFTV1e3fv16NbtNw+USJnyWS+TcQ8dGvTomRCBv1ew2DZdL+DAul8i5l5eXp15a0IhXn/qkW7duSozT6ZRfpmWAw+EQYf1xCPEmEDmxjPKqEI/JzKTxCPJWzW7TmCkX5FV1dbVYra2t9fYmhtLSUvHmMI+YKbKlbsSq8nZ4QayXi7Xcy87OHjRokMNN9+7dKUCoSd2gQqSnp6uxUuVYvnw5VRp92ZB7Z8+eTU5OTkxMFCfq0aOHSEOzf/LZ9cchrFzGxpgpF9k9BOAPsrekpKRrqq/xadeECROUGJTXokWLxGq1G7Gqd88e5RI598wM6OFeZWUlheVP6O3TenMPFBQUnDhxwqd7CJw6daq8vFzEL1myRITpvOLsSK+8NVJzv9cuJSVFrCKMM44ZM2bSpElSqnvlRy9G9viJRJqWlhbNSxqPIG/V7DaNmXKR3RM5aXB5+tzW3II5uoJjPvTQQwjIuiJy8uTJ0n4e3KNT01KL2XKJSffQIendu7e7+O6BdlJOgxszChsnpa2oDViKfEcxTJw4cdmyZSJxcXFxU1MTKtmBAwfEQRxdyxgHmSaBWzWaTeyCZhMDa6cbhLFEPGLkPq0oPwrQMadOnbpx40Z9GnrXlzivT4zL2Bif5YLLGDFixPe///3f/OY3qLvUKBEvvvgilvKr2wmP7oGqqirkDAIrVqzQ3KWAbFTSUAYSOPXu3bvFKvpEly9f1uxSLpZzz0yfUxkPEB5zZOfOnRRQagPaw2eeeeatt94SMZs3b54yZcrBgwelVF8fk5a4N4s699prr7377rtwG3Xx/PnzSID6R5tERRk/frzT/SrJ59x8+9vfxvL9999HQTY3Nz/yyCPTp09ft24dilmfJrRlbIzPckF9RWXF7QmZg0/UzQ0+BcJUs7GU0z///PNohbCUIwmkhK7IatzpNC/uyZ8a4ZycnK1bt9Lq008/rXcvdsvFcu6ZbPcM3HO4wX0OOe6QHKaAmCRwuvucKCFkOu7r2DRq1ChaIobexkrHxBLVBT1YIbB8nWDbtm0ifPHixfc7kX8NQPdO3MUHDBiQmZnZs2dPzV35qIzlNJp0fyXkptgjxmVsjM9yoYorsoLco+qLfpp4ba1ApNTHEz/84Q8pUN3Z56SioY8p7/id73wHGiDzaVXvXkyXS6y657PP6ewcooh9RYBAgiFDhnz11Vd79+7F2EDrzGLcNUUM7SJ29FbGuPXeu45OxFaCDo4b/+OPP44qiwQYPPgsY7HJGOMyNsZnuSCrKcNxq6JLEjbSm+LlxNQ2aobTyGKupbqz3ZM/qb6/c/LkSRoQ6t2jXWK0XCznXqj6nMbuOdwNI433cPeiU/To0UM5F8Ll5eVISatU1dAHW7lyZUNDg5yMAnRGOUYgyo8CSDB79uwlS5asWbNGnya0ZWyMz3KhPltKSgoqKOUPwt7cE5Nb5Ke8Scy1oAtHAY/ueQzTQF12zwblYjn3TLZ7evfE0I4g99Aj2rVrF8XgIEiDfoVIoNyYRRYLYCPuf8nJySIGt1hRYwTi8sQNWF88OPgLL7yAHpQoY83dKcKYXgwysSk9Pb2qqiq0ZWyMz3Kh3Ea7V1hYSJdk0O7Jzw/E7U+A1QsXLiANPZ8w7x4h3LNHudjHPQUq+LS0NJpYAxjUoRMi6gq5h62OTkS7J6ZDSVT57Djvm2++iU6piNF8lfHIkSMfffTR/fv3o95cvXqVylicIicnZ9OmTXTe4uJiXDMuKbRlbIzPclm9evXEiRNpvp6u01u7h7H0hg0bxKqyFe0eVpubm+EetYEBu2ePcomcez6f4eKzlZWVtba20qq3MkCy1NRU4195UjGPGTNGnoLDoJxykFbNtHuEOLvDXV1Qe3AX3Ldvn0hA3+SgCTeqVfJzZ6UKKmehMlYmLfwtY+NnuMb4LBeCLoaW1O5pXT8arp9mL2XkjyBmuUTbKGLkZAZjDeEeIbY6YrNcIueez+8N4m4q9xnoE+I+pJQBkinPXvWIZ7W0rwIN8DBaMO9eaWmpo2uOv/rqqziL/LyYSpqgUb63L16JXUBSUhLKWGyia/vWt77l6DrivbezJ4y/N2iMz3Ih6BpoSe0ePiN6fVR9Hb4+7AE3qMff//73yT35c4mAtzAlVoYVjhgvl8i5V1FRcfToUfXqmKCpr6/HcEXNbtNwuYQJn+USOffa29tN3mIZv0BPr7GxUc1u03C5hAmf5RI598DcuXMxqFWvkQkOM38NYgyXSzjwWS4Rde/8+fP6r0EwweByucrKytSM9hMul5Bjplwi6t4d96zauXPn1CtlAmXWrFm3b99Wc9l/uFxCi5lyibR7HR0d06dPp99iMEHy3nvvHT9+XM3igOByCSEmyyXS7oHLly/PnDmTizlI9u/fX1RUpGZuEHC5hATz5RIF90BzczPushhmqBfOmOPjjz9es2aNmq1Bw+USJH6VS3Tcu+Pu5GCMsWrVKp5h84umpqYFCxaUl5erGRoiuFwCI4ByiZp7xIULF+bOnbt48WJ+vGvMjRs3jhw5AiuQV21tbWo+hhouF5MEUy5Rdo9ob2+vqKhY5GahNUhISFCjogRlC4q2qqrq1q1bat6FEy4XA4IvF0u4Z0FQxmoUYwHsVC7snmfsVMZ2wk7lwu55xk5lbCfsVC7snmfsVMZ2wk7lwu55xk5lbCfsVC7snmdsU8bXr1+fPn06luqG2MQ25XKH3fOGPcoYyqWmpn722WdY2kM/e5QLwe55xgZlTOI1NjZqmoalPfSzQbkI2D3PxHoZy+IR9tAv1stFht3zTEyXsV482+gX0+WiwO55JnbL2Jt4RKzrF7vloofd80yMlrGxeERM6xej5eIRds8zVijj5ubmkpIS89+ONyMe4a9+uAZcCa5H3RBxrFAuoYLd84xFyrimpmbIkCHPP//8wYMH1W1dMS8eYVI/nBdnxzXgStRt0cAi5RIS2D3PWKeMUen79euXmJgIAebMmeOxGfRXPMJAP5wF58IZcV6c3SLi3bFSuQQPu+cZS5Uxqn5KSkqfPn1wVb169Xr22WflZjAw8Qi9fjgyjo+z4Fw4I85rHfHuWKxcgoTd84zVypj0QxOU4CYpKYmawYsXLwYsHkH64TjU0OHIdAqcy2ri3bFeuQQDu+cZqn8xwdq1a1Wf/ARHUA9qYdSiilnYvdhg//791OcEDofje9/73ujRowsLCxsaGmbMmPHll1+qPpkG++IIOA6OhmPiyDg+nQhnxHnVS2FCBLsXA5B44Ic//OHDDz/85ptvHj16VGyFPwHrR+IhII6GI+P4OAvORSdl/cIEu2d1UPV79+6NYRg1dB7nObWA9NOLJ8BZqBnEeXF21i8csHuWhp7vKQ2dRzQ/9TMQT4aaQes837MT7J518fd7LZpp/UyKJ7DO91rsBLtnKzQT+vkrHhMm2D27oRnqx+JZB3bPhmhe9GPxLAW7Z0/0+rF4VoPdsy2yfiyeBWH37Azpd+bMGRbPgrB7NgfKJSQksHgWhN2zP3b6/rGdYPfsD7tnTdg9+8PuWRN2z/6we9aE3bM/7J41YffsD7tnTdg9+8PuWRN2z4YoP/ZR3OOfAlkEds+GlJSUyD91ld1DPLaKVSaKsHs2pK2tLSUlRfzRg3APMYg3/2NcJqywe/bk9ddf79WrF+lH7iGMGMQrKZlowe7ZE5fLlZiYSP8yBvfon84Qg3g1KRMl2D3bMmLECPqPTbFEjJqIiR7snm0pLCx89NFHEzpBGDFqIiZ6sHu2pa2tbcCAAcI9hHmWxVKwe3bm9ddfp9enYMmzLFaD3bMzLpdryJAhcA9LnmWxGuyezaEZF55lsSDsns0pLCyEezzLYkHYvRBz8eLFDz74YIFlyMzMhHtYqhuiR25ubmlp6ZUrV9S8izPYvdBw+/btjRs3pqenFxUV1dfXi3/FtALbt29Xo6LN6dOnV6xYkZGREc+jUHYvBNTW1qalpaEaqVWM8cWWLVuysrJu3ryp5mkcwO4Fy5o1a9DWqXWKMU1DQ4PT6cRSzVm7w+4FRUFBwZ49e9TaxPjJtWvXoN+NGzfU/LU17F7goL9UXl6u1iMmINDuZWdnq1lsa9i9AGltbZ03b55ag5gg2Lp1a1xNvbB7AZKXl3fp0iW1+jBBcP369czMTDWj7Qu7FwgdHR25ublq3WGCBuPn+Hnux+4FwieffHLw4EG14jBBc/r06dLSUjW7bQq7FwgLFy5Uaw0TIpC3anbbFHYvEDDYU6tM0IwbN06N8kK3bt2UGKfTuWPHDiUyGCZNmuQzJj8//8CBA0qkR3BtuELN00H0IG/V7LYp7F4gmBnsZWdnDxo0yOGme/fuFCDUpG6qq6vT09PVWE2rra1FLUdg+fLlSKN5d+/s2bPJycmJiYniRD169KAECCMeWxGDMJyp7gTHpzTiRITsiTfNRo8erUZ5QrgnAgYgb9XstinsXiCYdK+yspLCsm/+uqe5ZyBOnDjh0z0ETp06JT9yXLJkiZJG2OLsRL4eOIbbBIUhG6m4YsUK2UkZf92rq6vz2T6ze4wRIXRv6dKlvXv3pmZKIAQgUPXRKOGktBXuYSnaJQg5ceLEZcuWicTFxcVNTU2o7qKxcujaPYqnTSKsuas+lh988EFOJwMGDKAAJSaUBlaAI6tRusQem1ABu8cYYdI9M33OpW7kGE3nA7Fz504KKO0e2sNnnnnmrbfeEjGbN2+eMmWKPBOLBkq0e6KRJDyeC3pUunnssccoIO4jhJneo8CvxOweY4RJ90y2ewbukatoNNC4OSSHKSC6gqTT+fPnodaIESOwadSoUbREDLqsevfovEA5l9LkeutV+qWTX4nZPcaI0Lrns8+JiksjPbGvCBBIMGTIkK+++mrv3r1nzpzROp1BT5VihHLU90MAbbLiHoHVI0eOZHfSv39/EUZXViQThyLEpA6BmwJFOtw9THbPI+xeIJh0L1R9TmP3HO6GkcZ7YrhF9V4kwyoOgkEgDQ7lSRcxz0lgl7Nnz4p+ptznlMdpik4em0cRWVdXh8RYdt3uGXaPMcKkeybbPb17YmhHkHvoOu7atYticBCkyczMFAmU+UNFBnlVdD6l7fcQlydma1588UXY2CWRn+5p0hXiUxw+fPheIh3sHmNEuN1TIPfS0tKEAxjUjRs3TtR+qtnYerelcyPaPZoOFasOdyOpuHfq1KnPP/+cwo7OyxO2eGy1nnrqqatXr4pVj+7df//9P3CDMPq9P//5zzVPtwkFdo8xwuf3WqBBWVlZa2srrYoKrYSRLDU11fjXt+gTor6OGTNGrv0nTpyAjUJFfYX2q93LycnZtGmT5h6nlZSUIAGMxSlEApwIrZ9YVbZqXY8v+r3Dhw+nx/cUj12wo/5SFfh7LYwRPr/PmZKSMm3aNLFKvqHmUaUU8Ug2efJkseoR8V0z2leBKjo1ZfJeinv6dk9+EJeUlAT3HJ0Tpxs3bhSbZHD9tJfyeFCJ0TzdCwgk01+qAn+fkzGioqLi6NGjaq1hgqa+vn7dunVqdtsUdi8Q2tvbfTZ9TAAUFxc3Njaq2W1T2L0AmTt3rjzZwISE7Hj6yxZ2L0DOnz9fUFCg1h0mCFwuV1lZmZrR9oXdCxx0O8+dO6fWICZQZs+effv2bTWX7Qu7FzgdHR0zZsxoaWlRKxHjP++///7x48fVLLY17F5QNDc3p6WlsX5B8vvf/764uFjNXLvD7gUL9EPrh+GfWqEYc2zfvn3NmjVqtsYB7F4IQOcTY7/Vq1fzzKdf4LaVm5tbXl6uZmh8wO6FjAsXLuTk5Lz77rvHjh27ceOGWtEYN8iZv/zlLy6XC3erxYsXt7W1qfkYN7B7Iaa9vb2iomKxlUhISFCjok1VVdWtW7fUvIsz2D37A/fUKMYCsHv2h92zJuye/WH3rAm7Z3/YPWvC7tkfds+asHv2h92zJuye/WH3rAm7Z0Oam5vlVcU9ZSsTLdg9G1JSUlJTUyNWZfcQj61ilYki7J4NaWtrGzx48I4dO2hVuIcYxMfz17gsBbtnT954441evXqRfuQewohBvJqUiRLsnj1xuVxJSUmkH9wj8RCDeDUpEyXYPdsycuTIxMREKAf3sEQYMWoiJnqwe7alsLBw2LBhCZ0gjBg1ERM92D3b0tbWNnDgQOEewjzLYinYPTvzxhtvDBo0COJhybMsVoPdszMul+vRRx+Fe1jyLIvVYPdszsiRI+Eez7JYEHbP5hQWFsI9nmWxIOxeKPnnP//5xRdfvP/++/PdzLMAGRkZcA9LdUM0oGxZsGDBRx991NLSomZfnMHuhYZ//OMf69evT09PLyoqqq+vV/+dK6ps375djYo2p0+fXr58ObLryJEjalbGDexeCHC5XDNnzsRSrWKML8rKyjIzM2/evKnmaRzA7gXL6tWr0dapdYoxTUNDQ1paGpZqztoddi8ofve73xm/LZ0xw7Vr16DfjRs31Py1Nexe4KC/VF5ertYjJiDQ7mVlZalZbGvYvQBpbW3NyclRaxATBFu2bImrLwCwewGSm5t76dIltfowQXD9+vWMjAw1o+0LuxcIHR0dCxYsUOsOEzQFBQVXrlxRs9umsHuB8Mknnxw8eFCtOEzQnD59urS0VM1um8LuBcLChQvVWhM048aNU6O80K1bNyXG6XTu2LFDiTRAfwSZJ598Ul4dPXq0vCrIz88/cOCAGusJXBuuEIFJkyap23Qgb9XstinsXiDk5eWpVUZHdnb2oEGDHG66d+9OAUJN6qa6ujo9PV2N1bTa2lrUcgSWL1+ONJonc8i9s2fPJicnJyYmihP16NFDSUnojyBj0j3NcJOMcE8EDEDeqtltU9i9QMjNzVWrjA64V1lZSWHZN3/d09yjoBMnTvh0D4FTp07Jjz2WLFlyL5GE/ggCNE2fffaZHGMgmMEmGaFcXV2dz/YZeatmt01h9wIhhO4tXbq0d+/eoqUi0E7KadDuofXDSWkrzMFS9N8g5MSJE5ctWyYSFxcXNzU1obqLPuHu3bvl49MRBEhPyTT35e3bt0/eisaTArSVUBpYAc6oRukSG/dU2T3GCJPumelzLnUjx2g6P4mdO3dSQGm10B4+88wzb731lojZvHnzlClTDGaDvLV7U6dO1W/y2LiZ6T0K/ErM7jFGmHTPZLtn4B65ikYDjZtDcpgCNA7UOvuc58+fhycjRozAplGjRtESMeiydh74a/SCEexeJGH3AiG07vnsc6Li0khP7CsCBBIMGTLkq6++2rt375kzZ7ROYdBTFTHz5s174IEHup6ny2RMSUlJYWGhODL2pYA39wwmdXBToEiHu4fJ7nmE3QsEk+6Fqs9p7J7D3TDSeE8Mt+RBmmD+/PkY+IlVhN9++22xSq2o2AWrGzZs0Ly7J+vkMY2IrKurQ2Isu273DLvHGGHSPZPtnt49MbQjyD10HXft2kUxOAjSZGZmigTK/KFHGbTOmRgEsBRdVhn58iZMmKB5OZRf7mnSFeJTHD58+F4iHeweY0S43VMg99LS0s6ePUsxGNSNGzdO1H6q2dh6t6VzI9o9/eNs1H6k1w8CCeXyNC9ePfXUU1evXhWrHtPcf//9P3CDMPq9P//5zzVPtwkFdo8xwqd70KCsrKy1tZVW5Qoth5EsNTXV+BeAGHehvo4ZM0bus504cQI2ChX1FdqjDFrnSIxmbny2e4T+UPAZFyDHyGlEv3f48OHVbigeu2BH/aUqsHuMET6/15KSkjJt2jSxShUaNY8qpYhHssmTJ4tVj4jvmtG+ClTRMd4zdk+kl30jDwkhtkO6vNLSUqzqvZIf0NHuyiM7b4Ihmf5SFfh7LYwR4fg+J0Pw9zkZI/h3DGGCf8fA+IB/vxcm+Pd7jG8wLOHfrYeW69evZ2ZmqhltX9i9AOH/awk5/H8tjFn4f8pCCP9PGeMfGJ8YP51jzMD/z8kEQmFhIf8vdTDw/1IzgcPvYwgYfh8DEyz/+Mc/NmzYYM33EFkQfg/RHXYvtIj37y1YsIDeNWcFEhIS1KjoscANv3/vDrsXD8A9NYqxAOye/WH3rAm7Z3/YPWvC7tkfds+asHv2h92zJuye/WH3rAm7Z3/YPWvC7tmQ5uZmeVVxT9nKRAt2z4aUlJTU1NSIVdk9xGOrWGWiCLtnQ9ra2h555BGhn3APMYjH1ntJmejB7tmTl19+uX///qQfuYcwYhCvJmWiBLtnT44cOZKYmDhkyBAoB/ewRBgx8fzdZavB7tmWxx57bODAgVAO7mGJMGLUREz0YPdsy5IlS5KSkgYPHgz3sEQYMWoiJnqwe7alra2tT58+CZ0gzLMsloLdszMvvfSScA9hdTMTVdg9O3PkyBFq+rDkWRarwe7ZnMceewzu8SyLBWH3bM6SJUvgHs+yWBB2L8S0t7dXVFQsXrx4kTWYO3cu3MNS3RAlFrupqqq6deuWmndxBrsXMi5cuJCTk/Puu+/W1tbeuHFD/Wuu6LF9+3Y1KnogZ27evOlyuRYuXAgJ43nqld0LAR0dHahJq1evll+DzPjk8uXLubm55eXlaobGB+xesDQ3N8+YMeP8+fNqzWLMgWZ5zZo1arbGAexeUEC8tLS0lpYWtUIx/rB///7i4mI1c+0Ouxc46GpOnz6dxQsJ77///vHjx9UstjXsXuBgjHfu3Dm1EjGBMnv27Nu3b6u5bF/YvQDBAK+goECtPkwQuFyusrIyNaPtC7sXIHPnzuVZzZCTnZ2tZrR9YfcCob29HR1OteIwQVNcXNzY2Khmt01h9wKhoqLi6NGjasVhgqa+vn7dunVqdtsUdi8QwtHojRs3To3yRHV1tdPpVGO7ggRIpsaaY9KkST5jwPjx4ymQn59/4MCBrhu74HA41ChDkLdqdtsUdi8Q8vLy1CqjA0OXQYMGOdx0796dAoSa1A1sSU9PV2N1eHRP8dajeybd1rrK5k0t4R4YPXq0tOVr9u3bV1lZiRyolFATeQJ5q2a3TWH3AiE3N1etMjrgnqhtsm9+uddNgpRDMhEjC4ZVEfboHujbt6/mvgAiKSlp4MCBFN65c6dIdvjwYZrCFQEFyIlTYCkOJRBpEM7uCk537xDeQd6q2W1T2L1ACKF7S5cu7d27t1x9He52Uk4jGpYTJ06I5gvXUFtbK9LIjaE39zIyMuTVnJycTZs2yTHYMTk5ma6hR48e4nqUls3h5fYhI/YVKB/KG+weY4RJ98z0OZe6kWO0rpV7x44d5BUFBMOGDZN9k/HmnoJH93AWCsu+yWF8dmGR/KGA3DvFqtzbrHT3P8VWA9g9xgiT7pls9wzca2pqmjhxYrIbMo02KUtg3OekNNTnFHh0z7jdw/W8/fbb2CTv5REH9zl9we4FQmjdM+hzohWCVDvckHuJiYkIiKU4jnCvpaXlz3/+c11dndgkMOOecbs3ZsyY8+fPi4+gXLbS7ilwn1OB3QsEk+4F3+d88cUX0e7J7qWkpKBNE0uxi3CPJkKVsxBm3DNu9wiPB1fQp9HHeITdY4ww6Z7Jdk/vnjzrSG2RcA+NJDWVtBTJQuKejMcnB4THg+s5c+YMloMHDxaN8KVLl3z+7IPdY4wIt3sy1BaJ8Z5Buzd//vyqqipxfHkESMC9RYsWiVXFPUdX5HaPEF1KR+cp5DToAFN/FYKdPHkSgaefflpOjxvKtm3bVq5cSZHeYPcYI3y6d/bs2bKystbWVloVlVUJI1lqauqePXtEjB653RNP2+gg8qFgWm1tbWZmpnjwADmV5+nf+MY3Ro0aJVaDb/fkNGKsKJ7+C/egnObpmj3C7jFG+PxeC1qkadOmiVWqcOJhtIhHssmTJ4tVj1CdbmtrW7x4sZhgbG5uTkpKUmYvcOSSkhI5Bh46pOfmcp/T4X62HqR7Hts9ITzOK7Y6TM+18PdaGCPC8X1OhuDvczJGfPLJJwcPHlRrDRM0p0+fLi0tVbPbprB7gdDR0eFzyMcEAAa0V65cUbPbprB7AYJhyaVLl9S6wwTB9evXMzMz1Yy2L+xegLS2ts6bN0+tPkwQbN261eVyqRltX9i9wNmyZUtFRYVag5iAQCciO57+rOUOuxckGJ8YP51jzHDt2jWn03njxg01f20Nuxcsa9asKSoqUmsTY5qGhgaIh6Was3aH3QsBtbW1aWlpGKuo1YrxBfrtWVlZN2/eVPM0DmD3QsPt27c3btyYnp6ONrC+vl6tYkxXTp8+vWLFioyMjLiaXFFg90LMxYsXP/jggwVWIiEhQY2KKnl5eaWlpfHzHM8b7J79gXtqFGMB2D37w+5ZE3bP/rB71oTdsz/snjVh9+wPu2dN2D37w+5ZE3bP/rB71oTdsyHNzc3yquKespWJFuyeDSkpKampqRGrsnuIx1axykQRds+GtLW1PfLII0I/4R5iEI+t95Iy0YPdsye/+tWv+vXrR/qRewgjBvFqUiZKsHv2xOVyJSYmDh48GMrBPSwRRkw8f3fZarB7tmXYsGG9e/eGcnAPS4QRoyZioge7Z1tWrFgB3/r06QP3sEQYMWoiJnqwe7alra2tb9++CZ0gzLMsloLdszPjx48X7iGsbmaiCrtnZ1wuV//+/SEeljzLYjXYPZszbNgwuMezLBaE3bM5K1asgHs8y2JB2L0o0N7eXlFRsWjRooXhZ86cOXAPS3VDGMAnWrx4cVVV1a1bt9TPzOhg9yLKhQsX5s6diwp69OhR9b+7wsb27dvVqLBx48aNmpqavLw8fEaeVjWG3YsQHR0dqJGrVq26evWqWmHtSFNT04IFC8rLy9WMYDph9yLB5cuXp0+ffv78ebWG2p3KysrCwkI1Oxg37F7YgXgzZ85saWlRK2Z8sH///qKiIjVTGHYv3KCriRYvbsUj3nvvvePHj6tZE/ewe+EFY7xz586plTH+mDVr1u3bt9XciW/YvTCCAV5BQYFaDeMSl8tVVlamZlB8w+6FkTlz5sTJrKYZsrKy1AyKb9i9cNHe3r5w4UK1AsYxxcXFjY2NajbFMexeuKioqIjkA3TrU19fv27dOjWb4hh2L1zk5eWptS9oxo0bp0bp6Natmxol8eSTT8qro0ePlldNMmnSJJ8xHkGeqNkUx7B74cKMe9nZ2YMGDXK46d69OwUINamb6urq9PR0NbYrwbhnxm1Cli0/P//AgQPSRq+wezLsXrjIzc1Vq54OuFdZWUlh2bcwuQdhPvvsMzlG3+717dtXc18AkZSUNHDgQArv3LlTJDt8+DBN4YqAGZAnajbFMexeuAihe0uXLu3du7fwgUA7SVt3794tx8M9ebW4uFgcB6v79u2Tt/bo0YMCIk1GRoYIg5ycnE2bNskxTqczOTlZ2R3oNdbD7smwe+HCpHtm+pxL3cgxms5Pgbd2b+rUqfpNPoXx6N6OHTsoLO/u81Aau9cVdi9cmHTPZLsXAffIeepzCjy6x+1eSGD3wkVo3TPoc4J58+Y98MADSgKIIRKUlJQUFhY6Og9bW1tLAb0wZtzjdi8ksHvhwqR7oepzzp8/HwM/sYrw22+/LVbz8/M1aResbtiwQfMkjBn3uN0LCexeuDDpnsl2T++ePOtIwCiaWcGSZFOQDzthwgQtIPdk9Lsbw+7JsHvhItzueaSgoADtkrdJf+Wwmid54N6iRYvEquKeu4W7h9zuEcYP+tg9GXYvXPh8tn727NmysrLW1lZadXhxD8lSU1P37NkjYryBtg47VldXY+mz3SP07n3jG98YNWqUWA1tu8fP1mXYvXDh072UlJRp06aJVRJj0qRJ1ICIeCSbPHmyWNVD6RXfyEOirq5OpBQJSktLHZ4GaXKf0+F+ts7uhQl2L1zwjxj0IE/UbIpj2L1wUVVVdejQIbX2xTFoftevX69mUxzD7oWLjo4OM9Mt8cOqVauuXLmiZlMcw+6FEXSxLl26pNbBuOT69ev8u3UFdi+MtLa2zp8/X62Gccm2bdv4RUgK7F542bp1a0VFhVoT4ww0/tnZ2WrWxD3sXtjBOMfM0zm7cu3atVmzZt24cUPNl7iH3YsERW7UWhkHoMWDeA0NDWqOMOxexKitrXU6nRjzqNXTvqC/nZWVdfPmTTUvGDfsXuS4ffv2pk2bMjIy0AbW19erVdUunD59euXKlZmZmTy5Ygy7FwXQE1u7dm1eXl5ubu6C8JOQkKBGhQF8ljw369ev5+d4ZmD37A/cU6MYC8Du2R92z5qwe/aH3bMm7J79YfesCbtnf9g9a8Lu2R92z5qwe/aH3bMm7J4NaW5ullcV95StTLRg92xISUlJTU2NWJXdQzy2ilUmirB7NqStrW3IkCFCP+EeYhCPrfeSMtGD3bMnEydO7Nu3L+lH7iGMGMSrSZkowe7ZE5fLlZiY+PDDD0M5uIclwojh7zdbB3bPtjgcDsg2aNAguIclwohREzHRg92zLQUFBf369YNycA9LhBGjJmKiB7tnW9ra2uBbQicI8yyLpWD37MzEiROFezzLYjXYPTvjcrkGDhwI8bDkWRarwe7ZHIfDAfd4lsWCsHs2p6CgAO7xLIsFYfcsSnt7e3l5+cKFC+lPUAImOzsb7mGpbvATXMmiRYuqqqpu3bqlXisTEOye5Th//vycOXNQ0Y8ePar+B1hAbN++XY0KlMOHD+fm5uLaeMo0eNg9C/G3v/0NNRv9w6tXr6q13ko0NjbOnz9/27Zt6gdg/IHdswpNTU2pqalo9NSablUqKioKCwvVj8GYht2zBBBvxowZLS0tagW3Nnv37i0qKlI/DGMOdi/6oKuJFi/mxCOKi4uPHTumfiTGBOxe9MnLyzt37pxaqWMHp9N5+/Zt9VMxvmD3ogysKygoUKtzTHHkyJGysjL1gzG+YPeizJw5cyw+q2kGfp9zALB70aS9vR0dTrUixyBFRUWNjY3qx2MMYfeiSXl5eageoEeX+vr6Dz/8UP14jCHsXjTxq9ErLCz8+OOP1diuTJo0SY3yhMPhUKMkRo8eTQHjZAr4LOrHYwxh96KJX+6BsWPH+nz43q1bNzWqk2nTptXV1WmSVH/6059ycnLkNBq7FynYvWiSm5urVmEdDjf33XcfBUD//v179+6NALVyW7du7dWrl9iq0KNHDzrOmTNnPvjgg2vXrm3cuHHnzp3i+LLMSJOSkiJWEa6urh4zZoyZ5hSfRf14jCHsXjQx4x4xdepUOIPAxYsXEd61a5fYlJGRUVVVdS+pxO7du99++20Kw6KkpCTY2LNnT0gl+5mfn48EZ8+edTqdiYmJaBudbhDGEvGI2bFjR5dD62D3/IXdiyZm3MMYD3oMHjwYziAwdOjQBx54AIERI0ZQglWrVskiyUAevTNLliw5ceKEEgnQvqENxF5NTU3VbshAMH78eCzVHbrC7vkLuxdNzLi3zk1jY+PJkyex2tLScuTIEQRGjhypJtW0N954Q43qCqxDz1ONldi2bZsIo419vxOXyyWl8gC75y/sXjQx715qair9DA8Szp49G51J4R4MQeP23nvvock6cOBAt27dsET8ihUrqDMpg46r0ufE6FFOMG7cOLFJICfwBrvnL+xeNDHpHvRYu3atMGHy5MkY8j344IOUoL6+vqCgoLS0FOHs7GyEkWbLli1bt26Vj0OMHTsW+s2YMUPEvPbaa9J2TZiGPqcSYwy75y/sXjQx6R7Yu3cvfMNqXV3dCy+8oEl9TrSE8GT9+vUOd7uHcPfu3adNmyYd42vQDNITQqETuqD/8z//I6cRm8SzCnYvTLB70cQv98Rci+Lep59+6nQ6oRB6njQ1gmTolCIgT7RcuHBh5syZX3zxBa2i8Vy6dGlmZqZIQLB7EYPdiyZmnq2Te2qsbq7l+eefh2zUUSRbaKJSmDNmzBj5l0qIRwKM7kQMUVtbq7lHfdiKMJKVlJQoaTzCz9b9hd2LJoG5t23bNighxnsON/SFlUmTJtGqlPweixYtoq0iAdnlcHdWRRiQgQTNvuinbRTYPX9h96IJf5c6nmH3ogn/hiieYfeiDP92Nm5h96IM/2dE3MLuRR/+r6T4hN2LPvwfgfEJu2cJ+L9x4xB2zyrwf8LHG+yehYihd6HMmzeP34USJOye5UDTl52dHcJ3gIUQfgdYCGH3LEqo3n0JEhIS1Cj/4Xdfhhx2z/7APTWKsQDsnv1h96wJu2d/2D1rwu7ZH3bPmrB79ofdsybsnv1h96wJu2d/2D1rwu7ZkObmZnlVcU/ZykQLds+GlJSU1NTUiFXZPcRjq1hlogi7Z0Pa2tpSUlKEfsI9xCCevw5mEdg9e/Lqq6/26dOH9CP3EEYM4tWkTJRg9+yJy+VKTEzs378/lIN7WCKMGMSrSZkowe7ZlieeeALWDRgwQCwRoyZioge7Z1tWr1798MMPJ3SCMGLUREz0YPdsS1tbG/qZwj2EeZbFUrB7dubVV19NSkqCeFjyLIvVYPfsjMvlGjRoENzDkmdZrAa7Z3NoxoVnWSwIu2dzVq9eDfd4lsWCsHtR4NKlSx9++GFeXl5ubu6CMJOZmQn3sFQ3hBp8Fvpbl/Xr11+5ckX9zIwOdi9y3L59e/PmzRkZGUVFRfX19ep/gIWN7du3q1Hh5PTp0ytXrszKyuIRpjHsXoQ4duyY0+lEdVSrqn3ZunVrdnb2zZs31bxg3LB7kaDIjVo34wD0rmfNmtXQ0KDmCMPuRYBVq1bt2bNHrZVxw7Vr16DfjRs31HyJe9i98IJ+V0VFhVof4wy0fnPmzFGzJu5h98JIa2vr/Pnz1ZoYl2zbto2nXhTYvTCycOFC3PLVahiXXL9+nd8LrcDuhYuOjo7c3Fy1DsYxGPfycz8Zdi9cVFVVHTp0SK2AcUxdXd369evVbIpj2L1wgQ6nWvviHuSJmk1xDLsXLvLy8tSq5wmHw+Ex7I1x48apUTrMHCd4Jk2a5DNGAXmiZlMcw+6Fi1C5l5+fX1tbK1arq6udTqe0/R7Lly/HVs37cRye6NGjByVAODExMTk5GTEIHzhwoLoTcQEI4DjimLJsiMcuYtUj7J4MuxcufE60kEUOX+5p7vjS0lJSpXv37hQg5GSvvfZaS0sLAps2bVq8eLG8yYDRo0eLMK5nx44dIsbZiXwiOIZroDBkIxVXrFghO+kN5ImaTXEMuxcuzLjXrRPUbywRg5YHNRsCUONWWFiouass7ZKTk0NhileYMGECBTy2jbKxAggjTHPo2j15XxHWOq/ngw8+yOlkwIABFJCT6WH3ZNi9cGHGPdGk0FLECPeKi4sLCgooPTp4iKcwxJg7dy6FiVGjRl25coXCbW1t2P3gwYNyAm8I9xAQ7R4FRBrFPQLXUOnmscceowBQE3WF3ZNh98KFT/do1kSu1iUlJTQqE+7R+ApL0ecU9OnTh0Z3zc3NSExDMnlkiOOfOHFCrHrDwL2lnYiLpFOLPqfYUV41gN2TYffChU/3CFTlNWvW1NTUUJiWwj1CntJoamqqq6tDYN++fWfOnEHg3XffhbS0VUhCvP766zj4559/Tqs//vGPH3/8cfLnoYceoki9e+h50jUMGjRIcY/A6pEjR7I76d+/vwijoZZTKrB7MuxeuPDpntMNKvr/b+/sYqK4/jDsVRMTb0y/AMEUKqItbcONVeNFe9ekf9Je1NSENBVja2ITExOsYIoI8ik0rWBLxc9EgopQgaoQ29KoLS5EUxuaFKWNLX6wGGFFQoJKyP/tnnB6PLsuizI7s2fe52Jy5nd+M7szOc+eM2dmd0WLxxJdnChI9y5dugSvLl++PDxpoLyWO3LkiNiPnOTAIFM1dth/OxsR4eqw3z35jNuyZctEQbqHyzwkw228xOrVq9VJF7U7Hfa7h7ckx5nqmDP0VCfdU6F7VjGlezt37szIyEhOTh5WruXQ+tH0pXvoSd544w0xthSdj3RPzqxI5D0GDDXlVaJKaPdCTHhqyG4QoiITvq1cuVJ8QISG7qnQPauY0j2BOpyTXqljTmGjzFTda2trk9vi5Y4fPy5X5VYqocecYnpTgN5Yc++3336TY1f5noWiwwEd7KOgeyp0zyoe4956enq66D3CdE9uK+65SXPS/PKkpKSIWsmT9HuFhYX19fXD/tfCMBgJ6KvVuRy8c/R+cjUovLeuQvesYrruiYKY51QnV4R7CIqLLune008/rc43yv2EiLS3tw8ODory6dOnv//++zTluZbAfg+DSRmJi4uDe2n+W4JIPnr0qKxSCf1YGd1ToXtW0dzc3NnZqbc+F9PT03Po0CH9NLkYumcVo6Oj/CqDyr59+65fv66fJhdD9yykoKDg9u3beht0K/zeugbds5De3t6gc/0uxOPxNDQ06CfI3dA9aykrK7ty5YreEt3Hli1bxsfH9bPjbuietYyNjW3atEl8tce17N+//8KFC/qpcT10z3L6+/s3b97sWv3a29v37t2rnxRC9yID9EPvh8s/vWGaTktLS01NjX46iB+6FyEw+MS1X3V1tUtmPm/cuFFcXNzU1KSfCDIJ3Ysof/75Z0FBQUVFhcG33Ts6OvApU15e7vP59OMnCnTPBkZHR5ubm9E6d0SEmJgYPWQNOCJ8rLS2tt67d08/ZhIA3TMfuKeHiAOge+ZD95wJ3TMfuudM6J750D1nQvfMh+45E7pnPnTPmdA986F7zoTuGYjX61VXNfe0WmIXdM9AamtrOzo65KrqHuKolavERuiegfh8vpSUlLNnz4pV6R4iiPNRL4dA98xk3bp18fHxQj/hHsqIIK6nEpuge2bi8XhiY2Pnz58P5eAeligjgrieSmyC7hnLkiVLYB2Uk0tE9CRiH3TPWGpqanB1FzMJyvwaq6Oge8bi8/kSExOleyhzlsVR0D2TWbduXUJCAsTDkrMsToPumYzH4xHDTiw5y+I06J7hiBkXzrI4ELpnODU1NXCPsywOhO7ZQF9f38GDB0tLS0usJy8vD+5hqVdYAI6orKzs8OHDt27d0o+ZBED3Isf4+Hh9fX1ubu7evXt7enr03/eyjBMnTughK+nu7t61axds5xVmaOhehOjq6srOzkZz1JuquTQ2Nm7btm1kZEQ/F8QP3YsEe/bsQV+nt00XcO3atZycHIyx9TNC6F4E+Oabb3744Qe9VbqGwcFB6Hf37l39vLgeumct3377bXNzs94eXQZ6v/z8fP3UuB66ZyFDQ0NFRUV6S3Ql+Azi1IsG3bOQsrIyfOTrzdCV3LlzJy8vTz9B7obuWcXY2FhpaaneBl1MdXU17/up0D2rOHXq1Llz5/QG6GK6u7vr6ur00+Ri6J5V7NixQ299rgfnRD9NLobuWQUu9vSm98SsWrVKDwXjzJkzOTk5evRhkIA0PeonLS1NlmfNmvVfhcKKFStEQU2eEpwT/TS5GLpnFeFc7OXn5y9YsCDNz+zZs0VBoKf6gS25ubl6NICg7mneBnVPzMqqrz6z7uGc6KfJxdA9qwjTvZaWFlFWG/GjGnRQ92YpCOWQJiOqYLMUkYK6J15XvvrJkycvXLig1P/LH3/8kZKSIldRxn7S09MzMzOVrODQPRW6ZxUz6N6XX34ZHx+f9jDoJ9Uc2RFdvHhRdnF4D11dXTJH7QzDcQ+ublQoLy+/fPkyNoyNjf39999z/KCMJeKIwFVlZ0Ggeyp0zyrCdC+cMeeXftTI8MN+otELr0RB8tprr4l4IDlTuQeBz0zy8ccff/7559AY/Vtvby8Sbt68Karka2VkZDzqtSR0T4XuWUWY7oXZ74VwDxqsXr062Y9o/apCcgnCH3MeO3YM/afMV98nOH78uCz/888/ByaZ8lsadE+F7lnFzLoXYsyJvg6SnPQj3BPjQLmU+5EuDQwMXL16FaNEWSUQryuWw0q+5h66xIffy7/I2hDQPRW6ZxVhuvfkY86VK1ei31PdE/Mfcik3kS6JsaL2KsP+fTY1NUldxQ5xLffVV1/19fWpaaIge87AXQWF7qnQPasI070w+71A99ra2mQZhqjuoZMUXaVYyrQp3ZszZ86GDRswdpURMVO6cePG/5KCdYyBuwoK3VOhe1ZhtXsqEEm93gvR7xUXF7e2tgbKI8jLyxt++NXxup988smPP/4oI8N0b4age1Yx5XMtGMs1NDQMDQ2J1Ue5h7SsrKzQ375V+73q6moRFDtRdwVVurq6IJi88QA5A5+VkZuggASv15ubm9ve3i4TxOZiIhRlpNXW1sraEPC5FhW6ZxVTPs+JHkkdy4kWn5mZmeZHxpG2Zs0auRoU4Z7P56uoqMC4UQThTFxcnHYbMNATIY86gsVqXV2d+h7A2rVrIZtIFqh3DsXsS2VlpbJFEPg8pwrds4rm5ubOzk699bmYnp6eQ4cO6afJxdA9qxgdHZ2y63MV+/btu379un6aXAzds5Dt27ffvn1bb4NuhT/ZokH3LKS3t1fOfLgcj8fT0NCgnyB3Q/esBcPOK1eu6C3RfWzZsmV8fFw/O+6G7lnL2NjYpk2bBgYG9MboJg4cOHDhwgX91Lgeumc5Xq83Ozvbtfr99NNP+/bt008KoXuRAfp9+umnuPzTG6bpfPfdd3v27NFPB/FD9yIEBp+49tu9e7dLZj77+/tLSkqampr0E0EmoXsR5a+//tq+fbv4HqreWo1gZGTE4/HgU6aiosLn8+nHTxTong2Mjo42NzejdZZHhJiYGD1kDRV+Wltb7927px8zCYDumQ/c00PEAdA986F7zoTumQ/dcyZ0z3zonjOhe+ZD95wJ3TMfuudM6J750D1nQvcMxOv1qquae1otsQu6ZyC1tbUdHR1yVXUPcdTKVWIjdM9AfD7fwoULT58+LVale4ggzke9HALdM5P169fPmzdP6CfcQxkRxPVUYhN0z0w8Hk9cXFx8fDyUg3tYoowI4noqsQm6ZyxLly6NjY2FcnAPS5QR0ZOIfdA9Y6mpqXnllVdiJkEZET2J2AfdMxafz5eUlCTdQ5mzLI6C7pnM+vXrhX5YcpbFadA9k/F4PIsXL4Z7WHKWxWnQPcNZunQp3OMsiwOhe4ZTU1MD9zjL4kDonhOZmJj4+++/Dxw4UFJSUvxk5OXlwT0s9YppgndSWlpaV1c3MDCgv13yWNA9Z/HgwYMjR47k5ubu3bu3p6dH/xmwx+LEiRN66HHp7u6uqqrC2zt//rz+1sk0oXsOwuPxbN68GUu9yTuPhoYG9KUjIyP6MZCwoXtOAZdk6Ov0Nu5g+vr6srOzsdSPhIQH3XME1dXVof9R3ZkMDg5Cv7t37+rHQ8KA7tlPY2NjU1OT3q6jBPR7/FPLx4Pu2czQ0FBhYaHeoqMKfHbwxv1jQPdspqys7Nq1a3pzjiru3LmTl5enHxiZCrpnJ2NjY6WlpXpbjkJwvXrr1i398EhI6J6dnDp16ty5c3pDjkK6u7vr6ur0wyMhoXt2smPHDr0VPy6ZmZlTRgSrVq3SQ4+gqqrqzJkzaWlpekUwcCz64ZGQ0D07wcWe3oQDCF8VVbbKysqzZ88qlQ8xa9YsPRQM4d5weO8Bx6IfHgkJ3bOTMC/25s+fj2XaJHFxcUlJSaLc1tYm03755Rdcd6kFCRSKjY2Ve9BISUnZsGGDmi+Q7oUDjkU/PBISumcnYbq3detWdbWwsLC+vl6N5OTkJCcnC5HmzJkjpVqxYoVI2LZtW4hbiKg9evQoCvn5+QsWLJCbJyQkQEu5qnoeCN2bLnTPTsJ0TyOoeydPnhRl6ZtaFn8xjaGjFEmCoan8A2q419LSIjdnv2cpdM9OpnRP6CHGnJKg7oXu98LkUe5dvHjxiy+++C8vGHRvutA9O5nSPUE47k3Z70khA5FTKXLMiYtDWHfs2DFYN0z3rIHu2ckMuhdmv6cOI9MCbh7Ifg87FGmVlZVyGRq6N13onp3MlHsqgb6pTNc9ITCWBw8eDP1NC7o3XeienYTvXnl5uVzV3JO9nEDt9wTqjb6dO3fevHlTbigKslsT7mVkZEj3UBY3A0MLP0z3pg/ds5Mw3XvqqaeWL18uV0NrELrf+/DDD2VZuicKuCbMysq6ceNGbW0t3PN6vXV1dShDQlwQhn7RYbo3feienYTzXMvww2PONP+99RAaBHVPzrWowdmzZ4ugiKekpGzcuFHWwrfPPvtMlLF56Bcd5nMt04fu2ckMPs9pO3yec7rQPTvh9xjcDN2zk7GxsZKSEr0hRyH8/t5jQPdsprS01IDvrW/dulU/MDIVdM9m+HstroXu2U9DQ0OILxk4nL6+vm3btumHRMKA7jmCr7/+OvRTI86Ev8/5JNA9p7B7927+LrWroHsO4vz581H0fwxbt27l/zE8CXTPWdy/f//w4cMz+z9EM4j8H6KOjg79rZNpQvecyMTExNWrV/fv319cXFz0xMTExOih6SP+gq+2tpb/vzdT0D3zgXt6iDgAumc+dM+Z0D3zoXvOhO6ZD91zJnTPfOieM6F75kP3nAndMx+650zonoF4vV51VXNPqyV2QfcMpLa2Vn3uRHUPcdTKVWIjdM9AfD7f4sWLpX7SPUQQR+1/qcQ+6J6ZfPDBB4mJiUI/4R7KiCCupxKboHtmAtNiY2MXLVqEAtzDEmVE+Ay0c6B7xpKampqcnIxBJtzDEmVE9CRiH3TPWCoqKtDRvfzyy3APS5QR0ZOIfdA9Y/H5fPHx8TGToMxZFkdB90zmvffek+6hrFcTW6F7JtPR0ZGQkADxsOQsi9Oge4aTmpoK9zjL4kDonuFUVFTAPc6yOBC6ZyATExOdnZ1FRUXvvvvu0qVL4R6WKCOCOGr1DYgd0D3T+Pnnn//np6qq6tKlS/39/e3t7ViijIioQo6+GYk4dM8cxsfHCwoK3nzzzba2Nr1OAbXIQSby9ToSQeieIUCktWvXZmZmhvN7tchBJvKpn43QPUNAPwadwncJmcjHVnoFiRR0zwRw/YZhpPafJOfPn//oo49SU1Pnzp2LJcqIqAnIx1a89rMLuhf1TExMpKenq9d4Dx48yMrKeumll956661XX301KSkJS5QRQRy1MhNbYVvOfNoC3Yt6Ojs73377bTUCwV5//fUXX3wx6WEQQRy1ajK2xR7UCIkMdC/qKSoq2rVrl1zFwHLhwoWJiYmaeALEUasOPrEt9iBXScSge1HPO++88+uvv8rVNWvWLFq0SHdOAbXIkfnYFnuQqyRi0L2oZ9myZepPj2Fg+cILL+jCKaAWOTIf22IPcpVEDLoX9aAfu3//vlx99tlnHzXgFKAWOTIf22IPcpVEDLoX9Wj93gt+dOEURILMZ79nF3Qv6tGu97A6b948XTgF1KoXeLzeswu6F/Vo85znzp17/vnnHzXsRBy1yJH5nOe0C7oX9QTe33v//fefe+65QP0QQRy1ajLv79kF3Yt6gj7XgmHkM888g+GluPbDEmVEEOdzLQ6B7plA0Oc5GxsblyxZghHm3LlzsUQZETWBz3PaC90zBH6PIeqge4bA7+9FHXTPHPi99eiC7plG4O+1IMjfa3EgdM9A1N8pW758eVJSEpb8nTKnQfcIsQe6R4g90D1C7IHuEWIPdI8Qe6B7hNgD3SPEHugeIfZA9wixh/8DbG4jsmTj99YAAAAASUVORK5CYII=;" vertex="1" parent="1">
            <mxGeometry x="260" y="20" width="297" height="896" as="geometry" />
          </mxCell>
        </UserObject>
      </root>
    </mxGraphModel>
  </diagram>
</mxfile>
